<svg xmlns="http://www.w3.org/2000/svg" height="20" viewBox="0 -960 960 960" width="20"><path d="m500-386 83.972-64.24Q587-453 595-472v-19q0-17.7-12.15-29.85Q570.7-533 553-533H408q-17.7 0-29.85 12.183Q366-508.634 366-490.884q0 17.751 12.65 30.317Q391.3-448 409-448h52l-84.991 65.252Q374-380 366-360.218v15.843q0 18.242 12.15 30.808Q390.3-301 408-301h145q17.7 0 29.85-12.683Q595-326.366 595-344.116q0-17.751-12.15-29.817Q570.7-386 553-386h-53ZM480.402-51Q402-51 332.367-81.1q-69.634-30.1-121.9-81.867Q158.2-214.733 128.1-284.228 98-353.722 98-432.861 98-512 128.1-581.133q30.1-69.134 82.367-121.4Q262.733-754.8 332.228-784.9 401.722-815 480.125-815q78.402 0 148.272 30.1 69.87 30.1 121.636 82.367Q801.8-650.267 831.9-581.272 862-512.278 862-433.139q0 79.139-30.1 148.772-30.1 69.634-81.867 121.4Q698.267-111.2 628.535-81.1 558.804-51 480.402-51ZM46-661q-15-15.8-14.5-34.9Q32-715 47-731l137-136q16-16 34.5-15.5T253-867q16 15 16 34.478T253-797L115-660q-15 16-33.978 15.5T46-661Zm869 0q-15 16-34.478 16T845-661L709-797q-16-16.044-16-35.522Q693-852 709-867t35-15q19 0 35 16l136 137q16 16 15.5 34T915-661Z"/></svg>